<?xml version="1.0" encoding="utf-8"?>
<!-- Generator: Adobe Illustrator 19.2.1, SVG Export Plug-In . SVG Version: 6.00 Build 0)  -->
<svg version="1.1" id="Layer_1" xmlns="http://www.w3.org/2000/svg" xmlns:xlink="http://www.w3.org/1999/xlink" x="0px" y="0px"
	 viewBox="0 0 427.6 91" style="enable-background:new 0 0 427.6 91;" xml:space="preserve">
<style type="text/css">
	.st0{fill:#FFFFFF;}
</style>
<title>Logo</title>
<path class="st0" d="M120.7,75.5h-4.3l1.7-4.6c0.2-0.5,0.3-1,0.5-1.5l0,0c0.1,0.5,0.3,1,0.5,1.5L120.7,75.5z M123.2,79.1l-4-10.7
	h-1.1l-4,10.7h1.1l1-2.7h4.9l1,2.7H123.2L123.2,79.1z"/>
<path class="st0" d="M126.2,73L126.2,73c0.4-1.2,1.6-2,2.9-2c1.8,0,2.4,1.1,2.4,2.5V79h-1v-5.1c0-1.3-0.4-2.1-1.6-2.1
	c-1.5,0-2.5,1.5-2.5,3.4V79h-1v-7c-0.4-0.1-0.9-0.1-1.4-0.2v-0.5c0.8-0.1,1.6-0.1,2.4-0.1C126.2,71.8,126.2,72.4,126.2,73z"/>
<path class="st0" d="M137.8,79.1V68.4h5.3v0.8h-4.3v3.9h4v0.8h-4v4.3h4.3V79L137.8,79.1L137.8,79.1z"/>
<path class="st0" d="M150.2,79.1l-2.3-3.3l-2.3,3.3h-1.3l3-3.9l-2.9-3.9h1.3l2.2,3.2l2.3-3.2h1.1l-2.9,3.9l3,4L150.2,79.1
	L150.2,79.1z"/>
<path class="st0" d="M157.8,74h-4.2c0.1-1.2,1-2.1,2.2-2.2c1.1,0,2,0.8,2,1.9C157.8,73.8,157.8,73.9,157.8,74z M158.9,74.3
	c0.2-1.6-1-3-2.5-3.1c-0.2,0-0.3,0-0.5,0c-2.1,0-3.4,1.7-3.4,4.1c0,2.8,1.3,4,3.6,4c0.9,0,1.7-0.1,2.5-0.5l-0.1-0.9
	c-0.7,0.3-1.5,0.5-2.3,0.5c-1.8,0-2.8-1-2.7-3.6h5.3C158.9,74.6,158.9,74.4,158.9,74.3L158.9,74.3z"/>
<path class="st0" d="M162.4,79.1h-1V68.4c-0.4-0.1-0.9-0.1-1.4-0.2v-0.6c0.8-0.1,1.6-0.1,2.4-0.1V79.1z"/>
<path class="st0" d="M170.7,75.1c0,2.3-1.2,3.3-2.5,3.3c-1.6,0-2.5-1.2-2.5-3.3s1.2-3.2,2.5-3.2C169.8,71.9,170.7,73.1,170.7,75.1z
	 M171.7,75.1c0-2.9-1.6-3.9-3.4-3.9c-2.4,0-3.7,1.9-3.7,4.1c0,2.8,1.3,4,3.4,4C170.3,79.2,171.7,77.3,171.7,75.1L171.7,75.1z"/>
<path class="st0" d="M175.3,71.2c-0.8,0-1.6,0-2.4,0.1v0.5c0.5,0,1,0.1,1.4,0.2v7h1v-3.7c0-2,1-3.4,2.5-3.4c1.2,0,1.6,0.8,1.6,2.1
	v5.1h1v-5.5c0-1.4-0.6-2.5-2.4-2.5c-1.3,0-2.4,0.8-2.9,2l0,0C175.3,72.5,175.3,71.8,175.3,71.2z"/>
<path class="st0" d="M190.9,79.2c-3.2,0-4.8-2-4.8-5.2s1.5-5.7,5.1-5.7c0.8,0,1.7,0.1,2.5,0.3l-0.1,0.9c-0.8-0.3-1.7-0.4-2.6-0.4
	c-2.7,0-3.8,2.1-3.8,4.6c0,2.9,1.3,4.5,4,4.5c0.9,0,1.8-0.2,2.6-0.6l0.1,0.9C193,79,192,79.2,190.9,79.2z"/>
<path class="st0" d="M201.2,75.1c0,2.3-1.2,3.3-2.5,3.3c-1.6,0-2.5-1.2-2.5-3.3s1.2-3.2,2.5-3.2C200.3,71.9,201.2,73.1,201.2,75.1z
	 M202.2,75.1c0-2.9-1.6-3.9-3.4-3.9c-2.4,0-3.7,1.9-3.7,4.1c0,2.8,1.3,4,3.4,4C200.8,79.2,202.2,77.3,202.2,75.1L202.2,75.1z"/>
<path class="st0" d="M214.8,79.1V74c0-1.3-0.3-2.1-1.5-2.1s-2.5,1.3-2.5,3.5v3.7h-1V74c0-1.1-0.2-2.1-1.5-2.1s-2.5,1.4-2.5,3.5v3.7
	h-1v-7c-0.4-0.1-0.9-0.1-1.4-0.2v-0.6c0.8-0.1,1.6-0.1,2.4-0.1c0,0.6,0,1.2-0.1,1.8l0,0c0.4-1.2,1.5-2,2.8-2
	c1.1-0.1,2.1,0.7,2.2,1.8c0,0.1,0,0.1,0,0.2c0.4-1.2,1.5-1.9,2.8-1.9c1.5,0,2.3,0.8,2.3,2.6V79L214.8,79.1L214.8,79.1z"/>
<path class="st0" d="M224.7,74.9c0,2.5-1.1,3.5-2.8,3.5c-0.6,0-1.1-0.1-1.7-0.2v-2.9c0-1.4,0.8-3.4,2.5-3.4
	C224,71.9,224.7,73,224.7,74.9z M219.2,72v11h1v-4c0.5,0.1,1,0.1,1.6,0.1c2.4,0,4-1.5,4-4.4c0-2.4-1.1-3.7-2.9-3.7
	c-1.2,0-2.3,0.8-2.7,1.9l0,0c0.1-0.6,0.1-1.2,0.1-1.8c-0.8,0-1.6,0-2.4,0.1v0.5C218.3,71.9,218.8,72,219.2,72L219.2,72z"/>
<path class="st0" d="M232.1,75.5c0.1,1.5-1,2.8-2.5,2.9c-0.7,0.1-1.3-0.4-1.4-1.1c0-0.1,0-0.1,0-0.2C228.3,76.4,229,75.4,232.1,75.5
	L232.1,75.5L232.1,75.5z M234.5,79v-0.6c-0.5,0-1-0.1-1.4-0.2v-4.6c0-1.5-0.6-2.5-2.7-2.5c-0.9,0-1.9,0.2-2.7,0.6l0.1,0.9
	c0.7-0.4,1.6-0.7,2.4-0.7c1.4,0,1.9,0.7,1.9,2v0.7c-3.2,0-4.8,1.2-4.8,2.8c0,1,0.8,1.9,1.8,1.9c0.1,0,0.2,0,0.3,0
	c1.2,0,2.3-0.7,2.8-1.9l0,0c-0.1,0.6-0.1,1.1-0.1,1.7C232.9,79.1,233.7,79.1,234.5,79z"/>
<path class="st0" d="M237.6,73L237.6,73c0.4-1.2,1.6-2,2.9-2c1.8,0,2.4,1.1,2.4,2.5V79h-1v-5.1c0-1.3-0.4-2.1-1.6-2.1
	c-1.5,0-2.5,1.5-2.5,3.4V79h-1v-7c-0.4-0.1-0.9-0.1-1.4-0.2v-0.5c0.8-0.1,1.6-0.1,2.4-0.1C237.7,71.8,237.6,72.4,237.6,73z"/>
<path class="st0" d="M248,79.9c-0.9,2.4-1.6,3.2-3.3,3.2c-0.3,0-0.7,0-1-0.1l0.1-0.9c0.3,0.1,0.7,0.1,1,0.1c1,0,1.5-0.5,2.2-2.2
	l0.4-1l-3-7.8h1.2l1.8,4.8c0.3,0.7,0.4,1.3,0.6,1.8l0,0c0.1-0.5,0.5-1.4,0.8-2.4l1.5-4.3h1.1L248,79.9z"/>
<path class="st0" d="M250.8,58.6v1.2H0v-1.2H250.8z M272.9,91h1.2V0h-1.2V91z"/>
<path class="st0" d="M133.4,22c-9.7,0-14.4,6.1-14.8,13.2h-10.3c-0.4,3.1-1.9,6-5.7,6C96.9,41.3,96,36,96,30.9s1.3-10.3,6.7-10.3
	c4.2,0,5.2,3.2,5.5,4.9h11.2c-0.5-8.5-6.4-14.2-16.5-14.2c-11.5,0-18.7,7.8-18.7,19.6c0,11.5,6,19.6,18.5,19.6
	c9.2,0,14.2-5.2,16-11.7c1,6.4,5.6,11.7,14.6,11.7c10.2,0,14.8-6.8,14.8-14.3S143.6,22,133.4,22z M133.4,43c-3.9,0-4.4-3.9-4.4-6.8
	s0.5-6.7,4.4-6.7s4.4,3.8,4.4,6.7S137.3,43,133.4,43L133.4,43z"/>
<path class="st0" d="M250.8,49.8h-10.1v-3h-0.1c-1.3,1.7-3.1,3.7-8.1,3.7c-9.1,0-11.5-7.6-11.5-14.4c0-6.4,2.7-14.1,11.8-14.1
	c3.1,0,5.8,0.8,7.4,3.1h0.1V12.5h10.5V49.8z M236.1,29.4c-3.7,0-4.6,3.5-4.6,6.7s0.8,6.8,4.6,6.8s4.6-3.5,4.6-6.8
	S239.8,29.4,236.1,29.4z"/>
<path class="st0" d="M185.7,49.4l6-12.7l-8,0.7l7.9-2.8l-12.9-11l14.6,9.3v-1.8c0-4.4-2.4-9.2-9.3-9.2c-6.8,0-8.9,3.9-9.3,4.2
	c-1.3-2.7-4.4-4.2-7.3-4.2c-3.8,0-6.8,1.1-8.9,4.3h-0.1v-3.6h-10v27.2h10.4V35c0-2.8,0.9-4.9,3.5-4.9c3.1,0,3.4,2.3,3.4,4.9v14.7
	h10.3V35c0-2.8,0.9-4.9,3.5-4.9c3.1,0,3.4,2.3,3.4,4.9v14.7h10.4V37.8L185.7,49.4z"/>
<polygon class="st0" points="220.6,21.9 220.6,12.5 194.4,12.5 194.4,31.2 205.2,12.9 195.5,33.4 220.1,29.7 196.1,35.4 211.5,49.3 
	194.4,37 194.4,49.8 220.6,49.8 220.6,40.2 205.9,40.2 205.9,35.5 220.6,35.5 220.6,26.6 205.9,26.6 205.9,21.9 "/>
<path class="st0" d="M259.4,45.7c0,0.4-0.4,0.8-0.8,0.7c0,0-0.1,0-0.1,0h-0.3v-1.3h0.5C259.2,45.1,259.4,45.3,259.4,45.7z
	 M260.3,48.7l-0.9-1.3c-0.2-0.3-0.3-0.5-0.4-0.6c0.6,0,1.1-0.5,1.1-1.2c0,0,0,0,0-0.1c0-0.6-0.4-1-1.4-1h-1.2v4.1h0.7v-1.9l0,0
	l1.2,1.9L260.3,48.7L260.3,48.7z M258.7,43.7c1.6,0,2.9,1.4,2.9,3c0,1.6-1.3,2.9-2.9,2.9h0c-1.6,0-2.9-1.4-2.9-3
	C255.8,45,257.1,43.7,258.7,43.7L258.7,43.7z M258.7,43c-2,0-3.7,1.6-3.7,3.7c0,2,1.6,3.6,3.5,3.7c0,0,0.1,0,0.1,0
	c2,0,3.6-1.7,3.7-3.7c0-2-1.6-3.6-3.6-3.7C258.8,43,258.8,43,258.7,43L258.7,43z"/>
<path class="st0" d="M299,50c-1.2,0-2.3-0.5-3-1.4v5.3h-3.3V36.5h2.5l0.2,1.7c0.6-1.3,1.9-2.1,3.3-2c2.3,0,3.6,1.7,3.6,4.1v5.7
	C302.2,48.3,300.8,50,299,50z M299,40.7c0-1.2-0.5-1.8-1.5-1.8c-0.9,0-1.5,0.7-1.5,1.6c0,0,0,0.1,0,0.1v5.1
	c-0.1,0.8,0.5,1.6,1.3,1.7c0,0,0.1,0,0.1,0c0.9,0,1.5-0.6,1.5-1.8L299,40.7L299,40.7z"/>
<path class="st0" d="M309.1,50c-2.4,0.2-4.5-1.6-4.7-4c0-0.2,0-0.5,0-0.7V41c0-2.6,2.1-4.7,4.7-4.7c2.6,0,4.7,2.1,4.7,4.7
	c0,0,0,0,0,0v4.3c0.2,2.4-1.6,4.5-4,4.7C309.5,50,309.3,50,309.1,50z M310.5,40.4c0-0.8-0.7-1.5-1.5-1.5s-1.5,0.7-1.5,1.5v5.5
	c0,0.8,0.7,1.5,1.5,1.5s1.5-0.7,1.5-1.5V40.4z"/>
<path class="st0" d="M326.8,49.8h-2.6l-1.3-5.5l-0.4-2.3l-0.5,2.3l-1.3,5.5h-2.6l-3.2-13.2h3.2l1.1,6.5l0.4,2.5l0.4-2.5l1.3-6.5h2.7
	l1.1,6.5l0.4,2.5l0.4-2.5l1.2-6.5h3L326.8,49.8z"/>
<path class="st0" d="M335.8,50c-2.4,0.2-4.5-1.7-4.7-4.1c0-0.2,0-0.3,0-0.5v-4.5c-0.1-2.4,1.8-4.5,4.2-4.6c0.2,0,0.3,0,0.5,0
	c2.4-0.2,4.4,1.6,4.6,4c0,0.2,0,0.4,0,0.6v2.5h-6v2.5c-0.1,0.8,0.4,1.5,1.2,1.6c0.1,0,0.2,0,0.3,0c0.8,0.1,1.5-0.5,1.5-1.3
	c0-0.1,0-0.2,0-0.3v-1h3v0.5c0.2,2.4-1.6,4.4-4,4.6C336.3,50,336.1,50,335.8,50z M337.3,40.4c0-0.8-0.7-1.5-1.5-1.5
	s-1.5,0.7-1.5,1.5v1.7h2.9V40.4L337.3,40.4z"/>
<path class="st0" d="M346,41.5v8.3h-3.4V36.5h2.8l0.2,2.6c0.6-2.3,2-3.1,3.9-2.7v3.3C346.8,39.3,346,40.2,346,41.5z"/>
<path class="st0" d="M351.2,49.8V36.5h3.4v13.2H351.2z M351.2,34.8v-3h3.3v3H351.2z"/>
<path class="st0" d="M363.4,49.8v-9.4c0.1-0.7-0.5-1.4-1.2-1.5c0,0-0.1,0-0.1,0c-1,0-1.6,1.4-1.6,2.2v8.7H357V36.5h2.9l0.2,2.6
	c0.4-1.6,1.7-2.7,3.4-2.8c2.1,0,3.3,1.5,3.3,3.7v9.8H363.4L363.4,49.8z"/>
<path class="st0" d="M378.1,38c-0.3,0-0.7-0.1-1-0.3c0.8,0.6,1.2,1.6,1.3,2.6v0.3c0,2.4-1.8,4-4.6,4c-0.4,0-0.7,0-1.1-0.1
	c-0.5-0.1-1.1,0.3-1.1,0.9c0,0,0,0,0,0.1c0,0.6,0.6,0.9,2.8,0.9c3.4,0,4.9,1.4,4.9,3.5V50c0,2.3-1.9,4.1-5.2,4.1
	c-3,0-5.3-1.4-5.3-3.3v-0.2c0.1-1.1,0.9-2.1,2-2.3c-1-0.2-1.7-1.1-1.7-2.1c0.1-1.2,1.1-2.1,2.2-2.2c-1.3-0.6-2.1-2-2-3.5v-0.1
	c0.1-2.4,2.1-4.3,4.5-4.2c0,0,0.1,0,0.1,0c0.6,0,1.3,0.1,1.9,0.3c0.7,0.2,1.4-0.3,1.6-1c0-0.2,0-0.3,0-0.5h2.4
	c0.1,0.4,0.1,0.8,0.1,1.2c0.1,0.9-0.5,1.7-1.4,1.8C378.2,38,378.1,38,378.1,38z M376.1,50c0-0.8-0.5-1.3-2.3-1.3
	c-1.5,0-2.3,0.5-2.3,1.4v0.3c0,0.8,0.7,1.5,2.3,1.5s2.3-0.6,2.3-1.5V50L376.1,50z M375.1,40.2c0-0.9-0.7-1.5-1.5-1.5
	c-0.9,0-1.5,0.7-1.5,1.5c0,0,0,0,0,0v0.7c0,0.9,0.7,1.5,1.5,1.5c0.9,0,1.5-0.7,1.5-1.5c0,0,0,0,0,0V40.2L375.1,40.2z"/>
<path class="st0" d="M385.5,49.8V31.4h3.3v18.4H385.5L385.5,49.8z"/>
<path class="st0" d="M391.3,49.8V36.5h3.4v13.2H391.3z M391.3,34.8v-3h3.3v3H391.3z"/>
<path class="st0" d="M402.6,49.8h-2.9l-3.7-13.2h3.3l1.5,6.5l0.5,2.5l0.5-2.5l1.4-6.5h3.2L402.6,49.8z"/>
<path class="st0" d="M412.1,50c-2.4,0.2-4.5-1.7-4.7-4.1c0-0.2,0-0.3,0-0.5v-4.5c-0.1-2.4,1.8-4.5,4.2-4.6c0.2,0,0.3,0,0.5,0
	c2.4-0.2,4.4,1.6,4.6,4c0,0.2,0,0.4,0,0.6v2.5h-6v2.5c-0.1,0.8,0.4,1.5,1.2,1.6c0.1,0,0.2,0,0.3,0c0.8,0.1,1.5-0.5,1.5-1.3
	c0-0.1,0-0.2,0-0.3v-1h3v0.5c0.2,2.4-1.6,4.4-4,4.6C412.6,50,412.4,50,412.1,50z M413.6,40.4c0-0.8-0.7-1.5-1.5-1.5
	s-1.5,0.7-1.5,1.5v1.7h2.9V40.4L413.6,40.4z"/>
<path class="st0" d="M423.1,50c-3,0-4.6-1.8-4.6-4.1v-0.5h2.8v0.5c-0.1,0.8,0.5,1.6,1.3,1.7c0.1,0,0.3,0,0.4,0c1,0,1.6-0.4,1.6-1.3
	c0-1.2-1.1-1.6-2.9-2.4s-2.9-1.7-2.9-3.7c0-2.4,1.8-3.9,4.4-3.9c2.8,0,4.4,1.7,4.4,4v0.2h-2.8v-0.4c0-0.7-0.5-1.4-1.2-1.4
	c-0.1,0-0.2,0-0.3,0c-0.6-0.1-1.2,0.3-1.4,0.9c0,0.1,0,0.2,0,0.3c0,0.8,0.6,1.2,2.2,1.8c2.1,0.8,3.6,1.9,3.6,4.3
	C427.6,48,426.2,50,423.1,50z"/>
</svg>
